<?xml version="1.0" encoding="UTF-8"?>
<svg id="Layer_1" xmlns="http://www.w3.org/2000/svg" version="1.1" viewBox="0 0 1236 120">
  <!-- Generator: Adobe Illustrator 29.5.1, SVG Export Plug-In . SVG Version: 2.1.0 Build 141)  -->
  <path d="M128.06,27.13c-1.76-6.05-4.9-11.49-9.39-15.94-4.49-4.45-9.95-7.54-16-9.28-3.02-.87-6.06-1.37-9.19-1.63-3.18-.27-6.15-.28-9.34-.28H0v120h84.15c3.18,0,6.16,0,9.34-.28,3.12-.26,6.16-.77,9.19-1.63,6.05-1.74,11.51-4.83,16-9.28,4.49-4.45,7.62-9.89,9.39-15.94.88-3.02,1.39-6.06,1.66-9.19.27-3.18.28-6.15.28-9.33v-28.7c0-3.18,0-6.16-.28-9.33-.27-3.13-.78-6.17-1.66-9.19ZM105,70.09c0,3.42,0,6.96-.8,10.51-.82,3.65-2.39,6.66-4.67,8.93-2.28,2.28-5.28,3.85-8.93,4.67-3.54.8-7.08.8-10.51.8H25V25h55.09c3.42,0,6.96,0,10.51.8,3.65.82,6.66,2.39,8.93,4.67,2.28,2.28,3.85,5.28,4.67,8.93.8,3.55.8,7.09.8,10.51v20.17ZM918.06,27.13c-1.76-6.05-4.9-11.49-9.39-15.94-4.49-4.45-9.95-7.54-16-9.28-3.02-.87-6.06-1.37-9.19-1.63-3.18-.27-6.15-.28-9.34-.28h-84.15v120h84.15c3.18,0,6.16,0,9.34-.28,3.12-.26,6.16-.77,9.19-1.63,6.05-1.74,11.51-4.83,16-9.28,4.49-4.45,7.62-9.89,9.39-15.94.88-3.02,1.39-6.06,1.66-9.19.27-3.18.28-6.15.28-9.33v-28.7c0-3.18,0-6.16-.28-9.33-.27-3.13-.78-6.17-1.66-9.19ZM895,70.09c0,3.42,0,6.96-.8,10.51-.82,3.65-2.39,6.66-4.67,8.93-2.28,2.28-5.28,3.85-8.93,4.67-3.54.8-7.08.8-10.51.8h-55.09V25h55.09c3.42,0,6.96,0,10.51.8,3.65.82,6.66,2.39,8.93,4.67,2.28,2.28,3.85,5.28,4.67,8.93.8,3.55.8,7.09.8,10.51v20.17ZM495,95h95v25h-120V0h120v25h-95v22.5h85v25h-85v22.5ZM977.5,95h95v25h-120V0h120v25h-95v22.5h85v25h-85v22.5ZM755,0v120h-30l-75-84.91v84.91h-25V0h30l75,84.9V0h25ZM187.5,95h95v25h-120V0h120v25h-95v22.5h85v25h-85v22.5ZM437.5,0v25h-95v22.5h85v25h-85v47.5h-25V0h120ZM1194.16,70.08c13.26,0,20.13-4.95,23.55-8.37,3.42-3.42,5.69-7.62,6.94-12.25.62-2.31.97-4.64,1.16-7.02.18-2.37.19-5.06.19-7.44s0-5.06-.19-7.44c-.18-2.38-.54-4.71-1.16-7.02-1.25-4.63-3.52-8.83-6.94-12.25-3.42-3.42-7.62-5.69-12.25-6.94-2.31-.62-4.63-.97-7.02-1.16-2.38-.18-4.75-.19-7.13-.19h-85.32v120h25v-47.5h32.71l39.79,47.5h32.5l-41.84-49.92ZM1131,47.5v-22.5h59.92c1.55,0,3.01,0,4.47.29,1.54.31,2.72.89,3.62,1.79.89.89,1.48,2.08,1.79,3.62.29,1.46.29,1.75.29,3.3v2.01c0,1.55,0,4.34-.29,5.8-.31,1.54-.89,2.72-1.79,3.62s-2.08,1.48-3.62,1.79c-1.46.29-2.92.29-4.47.29h-59.92Z"/>
</svg>